<mxfile host="app.diagrams.net" modified="2023-08-10T00:54:03.459Z" agent="Mozilla/5.0 (Windows NT 10.0; Win64; x64) AppleWebKit/537.36 (KHTML, like Gecko) Chrome/114.0.0.0 Safari/537.36 Edg/114.0.1823.86" etag="SvIKS3deEm6n9uxPk7w5" version="21.6.7" type="github">
  <diagram name="第 1 页" id="e0ZjfCnBpSBYSQyid5Ti">
    <mxGraphModel dx="1434" dy="796" grid="1" gridSize="10" guides="1" tooltips="1" connect="1" arrows="1" fold="1" page="1" pageScale="1" pageWidth="827" pageHeight="1169" math="0" shadow="0">
      <root>
        <mxCell id="0" />
        <mxCell id="1" parent="0" />
        <mxCell id="jvAspUG5LIDvkm1L4I2T-1" value="家庭" style="rounded=0;whiteSpace=wrap;html=1;" parent="1" vertex="1">
          <mxGeometry x="700" y="460" width="90" height="20" as="geometry" />
        </mxCell>
        <mxCell id="jvAspUG5LIDvkm1L4I2T-2" value="房子" style="rounded=0;whiteSpace=wrap;html=1;" parent="1" vertex="1">
          <mxGeometry x="360" y="560" width="110" height="20" as="geometry" />
        </mxCell>
        <mxCell id="jvAspUG5LIDvkm1L4I2T-4" value="国家" style="rounded=0;whiteSpace=wrap;html=1;" parent="1" vertex="1">
          <mxGeometry x="360" y="990" width="100" height="20" as="geometry" />
        </mxCell>
        <mxCell id="jvAspUG5LIDvkm1L4I2T-5" value="" style="endArrow=classic;html=1;rounded=0;" parent="1" source="jvAspUG5LIDvkm1L4I2T-22" target="jvAspUG5LIDvkm1L4I2T-4" edge="1">
          <mxGeometry width="50" height="50" relative="1" as="geometry">
            <mxPoint x="296" y="770" as="sourcePoint" />
            <mxPoint x="446" y="810" as="targetPoint" />
          </mxGeometry>
        </mxCell>
        <mxCell id="jvAspUG5LIDvkm1L4I2T-7" value="" style="endArrow=classic;html=1;rounded=0;exitX=0.915;exitY=-0.192;exitDx=0;exitDy=0;exitPerimeter=0;entryX=0.565;entryY=1.017;entryDx=0;entryDy=0;entryPerimeter=0;" parent="1" source="jvAspUG5LIDvkm1L4I2T-22" target="jvAspUG5LIDvkm1L4I2T-1" edge="1">
          <mxGeometry width="50" height="50" relative="1" as="geometry">
            <mxPoint x="586" y="780" as="sourcePoint" />
            <mxPoint x="736" y="850" as="targetPoint" />
          </mxGeometry>
        </mxCell>
        <mxCell id="jvAspUG5LIDvkm1L4I2T-9" value="购买使用权" style="text;html=1;strokeColor=none;fillColor=none;align=center;verticalAlign=middle;whiteSpace=wrap;rounded=0;rotation=-45;" parent="1" vertex="1">
          <mxGeometry x="535" y="620" width="140" height="30" as="geometry" />
        </mxCell>
        <mxCell id="jvAspUG5LIDvkm1L4I2T-12" value="拥有所有权" style="text;html=1;strokeColor=none;fillColor=none;align=center;verticalAlign=middle;whiteSpace=wrap;rounded=0;" parent="1" vertex="1">
          <mxGeometry x="376" y="940" width="151" height="20" as="geometry" />
        </mxCell>
        <mxCell id="jvAspUG5LIDvkm1L4I2T-13" value="一般为:70年,50年,20年" style="text;html=1;strokeColor=none;fillColor=none;align=center;verticalAlign=middle;whiteSpace=wrap;rounded=0;rotation=0;" parent="1" vertex="1">
          <mxGeometry x="355" y="640" width="130" height="30" as="geometry" />
        </mxCell>
        <mxCell id="jvAspUG5LIDvkm1L4I2T-14" value="说实话房子用45年后就得重买" style="text;html=1;strokeColor=none;fillColor=none;align=center;verticalAlign=middle;whiteSpace=wrap;rounded=0;rotation=0;" parent="1" vertex="1">
          <mxGeometry x="325" y="620" width="190" height="30" as="geometry" />
        </mxCell>
        <mxCell id="jvAspUG5LIDvkm1L4I2T-15" value="&lt;b&gt;&lt;font style=&quot;font-size: 18px;&quot;&gt;房子是商品&lt;/font&gt;&lt;/b&gt;" style="text;html=1;strokeColor=none;fillColor=none;align=center;verticalAlign=middle;whiteSpace=wrap;rounded=0;" parent="1" vertex="1">
          <mxGeometry x="130" y="290" width="110" height="30" as="geometry" />
        </mxCell>
        <mxCell id="jvAspUG5LIDvkm1L4I2T-22" value="土地" style="rounded=0;whiteSpace=wrap;html=1;" parent="1" vertex="1">
          <mxGeometry x="356" y="850" width="110" height="20" as="geometry" />
        </mxCell>
        <mxCell id="jvAspUG5LIDvkm1L4I2T-23" value="" style="endArrow=classic;html=1;rounded=0;exitX=0.25;exitY=0;exitDx=0;exitDy=0;entryX=0.5;entryY=1;entryDx=0;entryDy=0;" parent="1" source="jvAspUG5LIDvkm1L4I2T-22" target="jvAspUG5LIDvkm1L4I2T-33" edge="1">
          <mxGeometry width="50" height="50" relative="1" as="geometry">
            <mxPoint x="516" y="820" as="sourcePoint" />
            <mxPoint x="411" y="780" as="targetPoint" />
          </mxGeometry>
        </mxCell>
        <mxCell id="jvAspUG5LIDvkm1L4I2T-24" value="房子是建立在土地之上的,必须现拥有土地的使用权后才能建房" style="text;html=1;strokeColor=none;fillColor=none;align=center;verticalAlign=middle;whiteSpace=wrap;rounded=0;" parent="1" vertex="1">
          <mxGeometry x="325" y="710" width="180" height="30" as="geometry" />
        </mxCell>
        <mxCell id="jvAspUG5LIDvkm1L4I2T-27" value="居民用地70年" style="text;html=1;strokeColor=none;fillColor=none;align=center;verticalAlign=middle;whiteSpace=wrap;rounded=0;rotation=-45;" parent="1" vertex="1">
          <mxGeometry x="505" y="610" width="170" height="30" as="geometry" />
        </mxCell>
        <mxCell id="jvAspUG5LIDvkm1L4I2T-31" value="购买使用权" style="text;html=1;strokeColor=none;fillColor=none;align=center;verticalAlign=middle;whiteSpace=wrap;rounded=0;rotation=45;" parent="1" vertex="1">
          <mxGeometry x="175" y="620" width="140" height="30" as="geometry" />
        </mxCell>
        <mxCell id="jvAspUG5LIDvkm1L4I2T-32" value="居民用地70年" style="text;html=1;strokeColor=none;fillColor=none;align=center;verticalAlign=middle;whiteSpace=wrap;rounded=0;rotation=45;" parent="1" vertex="1">
          <mxGeometry x="180" y="610" width="170" height="30" as="geometry" />
        </mxCell>
        <mxCell id="jvAspUG5LIDvkm1L4I2T-33" value="开发商" style="rounded=0;whiteSpace=wrap;html=1;" parent="1" vertex="1">
          <mxGeometry x="60" y="470" width="120" height="20" as="geometry" />
        </mxCell>
        <mxCell id="jvAspUG5LIDvkm1L4I2T-38" value="建设房子" style="text;html=1;strokeColor=none;fillColor=none;align=center;verticalAlign=middle;whiteSpace=wrap;rounded=0;rotation=-30;" parent="1" vertex="1">
          <mxGeometry x="540" y="530" width="60" height="30" as="geometry" />
        </mxCell>
        <mxCell id="jvAspUG5LIDvkm1L4I2T-42" value="" style="endArrow=classic;html=1;rounded=0;entryX=0.5;entryY=0;entryDx=0;entryDy=0;" parent="1" source="jvAspUG5LIDvkm1L4I2T-2" target="jvAspUG5LIDvkm1L4I2T-22" edge="1">
          <mxGeometry width="50" height="50" relative="1" as="geometry">
            <mxPoint x="510" y="750" as="sourcePoint" />
            <mxPoint x="560" y="700" as="targetPoint" />
          </mxGeometry>
        </mxCell>
        <mxCell id="jvAspUG5LIDvkm1L4I2T-43" value="" style="endArrow=classic;html=1;rounded=0;entryX=0;entryY=0.25;entryDx=0;entryDy=0;exitX=1;exitY=0.25;exitDx=0;exitDy=0;" parent="1" source="jvAspUG5LIDvkm1L4I2T-2" target="jvAspUG5LIDvkm1L4I2T-1" edge="1">
          <mxGeometry width="50" height="50" relative="1" as="geometry">
            <mxPoint x="527" y="550" as="sourcePoint" />
            <mxPoint x="577" y="400" as="targetPoint" />
          </mxGeometry>
        </mxCell>
        <mxCell id="jvAspUG5LIDvkm1L4I2T-44" value="" style="endArrow=classic;html=1;rounded=0;exitX=0;exitY=0.75;exitDx=0;exitDy=0;entryX=1;entryY=0.75;entryDx=0;entryDy=0;" parent="1" source="jvAspUG5LIDvkm1L4I2T-1" target="jvAspUG5LIDvkm1L4I2T-2" edge="1">
          <mxGeometry width="50" height="50" relative="1" as="geometry">
            <mxPoint x="520" y="520" as="sourcePoint" />
            <mxPoint x="470" y="485" as="targetPoint" />
          </mxGeometry>
        </mxCell>
        <mxCell id="jvAspUG5LIDvkm1L4I2T-46" value="拥有房子所有权" style="text;html=1;strokeColor=none;fillColor=none;align=center;verticalAlign=middle;whiteSpace=wrap;rounded=0;rotation=-25;" parent="1" vertex="1">
          <mxGeometry x="490" y="500" width="120" height="30" as="geometry" />
        </mxCell>
        <mxCell id="jvAspUG5LIDvkm1L4I2T-47" value="" style="endArrow=classic;html=1;rounded=0;exitX=0;exitY=0.25;exitDx=0;exitDy=0;entryX=1;entryY=0.25;entryDx=0;entryDy=0;" parent="1" source="jvAspUG5LIDvkm1L4I2T-2" target="jvAspUG5LIDvkm1L4I2T-33" edge="1">
          <mxGeometry width="50" height="50" relative="1" as="geometry">
            <mxPoint x="190" y="490" as="sourcePoint" />
            <mxPoint x="320" y="450" as="targetPoint" />
          </mxGeometry>
        </mxCell>
        <mxCell id="jvAspUG5LIDvkm1L4I2T-49" value="" style="endArrow=classic;html=1;rounded=0;entryX=0;entryY=0.75;entryDx=0;entryDy=0;exitX=1;exitY=0.75;exitDx=0;exitDy=0;" parent="1" source="jvAspUG5LIDvkm1L4I2T-33" target="jvAspUG5LIDvkm1L4I2T-2" edge="1">
          <mxGeometry width="50" height="50" relative="1" as="geometry">
            <mxPoint x="510" y="750" as="sourcePoint" />
            <mxPoint x="560" y="700" as="targetPoint" />
          </mxGeometry>
        </mxCell>
        <mxCell id="jvAspUG5LIDvkm1L4I2T-50" value="建设房子" style="text;html=1;strokeColor=none;fillColor=none;align=center;verticalAlign=middle;whiteSpace=wrap;rounded=0;rotation=30;" parent="1" vertex="1">
          <mxGeometry x="220" y="520" width="60" height="30" as="geometry" />
        </mxCell>
        <mxCell id="jvAspUG5LIDvkm1L4I2T-51" value="拥有房子所有权" style="text;html=1;strokeColor=none;fillColor=none;align=center;verticalAlign=middle;whiteSpace=wrap;rounded=0;rotation=25;" parent="1" vertex="1">
          <mxGeometry x="205" y="500" width="150" height="30" as="geometry" />
        </mxCell>
        <mxCell id="jvAspUG5LIDvkm1L4I2T-55" value="开发商可以把房子的所有权出售给家庭" style="text;html=1;strokeColor=none;fillColor=none;align=center;verticalAlign=middle;whiteSpace=wrap;rounded=0;" parent="1" vertex="1">
          <mxGeometry x="300" y="290" width="250" height="30" as="geometry" />
        </mxCell>
        <mxCell id="jvAspUG5LIDvkm1L4I2T-59" value="二手房东" style="rounded=0;whiteSpace=wrap;html=1;" parent="1" vertex="1">
          <mxGeometry x="360" y="350" width="120" height="20" as="geometry" />
        </mxCell>
        <mxCell id="jvAspUG5LIDvkm1L4I2T-60" value="" style="endArrow=classic;html=1;rounded=0;entryX=0.05;entryY=0;entryDx=0;entryDy=0;exitX=0.5;exitY=0;exitDx=0;exitDy=0;entryPerimeter=0;" parent="1" source="jvAspUG5LIDvkm1L4I2T-33" target="jvAspUG5LIDvkm1L4I2T-59" edge="1">
          <mxGeometry width="50" height="50" relative="1" as="geometry">
            <mxPoint x="110" y="450" as="sourcePoint" />
            <mxPoint x="160" y="400" as="targetPoint" />
          </mxGeometry>
        </mxCell>
        <mxCell id="jvAspUG5LIDvkm1L4I2T-62" value="购买房子的使用权" style="text;html=1;strokeColor=none;fillColor=none;align=center;verticalAlign=middle;whiteSpace=wrap;rounded=0;rotation=-25;" parent="1" vertex="1">
          <mxGeometry x="215" y="410" width="100" height="30" as="geometry" />
        </mxCell>
        <mxCell id="jvAspUG5LIDvkm1L4I2T-63" value="" style="endArrow=classic;html=1;rounded=0;entryX=0.25;entryY=0;entryDx=0;entryDy=0;exitX=1;exitY=1;exitDx=0;exitDy=0;" parent="1" source="jvAspUG5LIDvkm1L4I2T-59" target="jvAspUG5LIDvkm1L4I2T-1" edge="1">
          <mxGeometry width="50" height="50" relative="1" as="geometry">
            <mxPoint x="515" y="420" as="sourcePoint" />
            <mxPoint x="565" y="370" as="targetPoint" />
          </mxGeometry>
        </mxCell>
        <mxCell id="jvAspUG5LIDvkm1L4I2T-64" value="购买房子的使用权" style="text;html=1;strokeColor=none;fillColor=none;align=center;verticalAlign=middle;whiteSpace=wrap;rounded=0;rotation=20;" parent="1" vertex="1">
          <mxGeometry x="525" y="410" width="130" height="30" as="geometry" />
        </mxCell>
        <mxCell id="jvAspUG5LIDvkm1L4I2T-65" value="" style="endArrow=classic;html=1;rounded=0;exitX=0;exitY=1;exitDx=0;exitDy=0;entryX=0.75;entryY=0;entryDx=0;entryDy=0;" parent="1" source="jvAspUG5LIDvkm1L4I2T-59" target="jvAspUG5LIDvkm1L4I2T-33" edge="1">
          <mxGeometry width="50" height="50" relative="1" as="geometry">
            <mxPoint x="580" y="630" as="sourcePoint" />
            <mxPoint x="290" y="420" as="targetPoint" />
          </mxGeometry>
        </mxCell>
        <mxCell id="jvAspUG5LIDvkm1L4I2T-66" value="拥有使用权" style="text;html=1;strokeColor=none;fillColor=none;align=center;verticalAlign=middle;whiteSpace=wrap;rounded=0;rotation=-25;" parent="1" vertex="1">
          <mxGeometry x="185" y="390" width="95" height="30" as="geometry" />
        </mxCell>
        <mxCell id="jvAspUG5LIDvkm1L4I2T-67" value="" style="endArrow=classic;html=1;rounded=0;exitX=0.75;exitY=0;exitDx=0;exitDy=0;entryX=0.951;entryY=0.058;entryDx=0;entryDy=0;entryPerimeter=0;" parent="1" source="jvAspUG5LIDvkm1L4I2T-1" target="jvAspUG5LIDvkm1L4I2T-59" edge="1">
          <mxGeometry width="50" height="50" relative="1" as="geometry">
            <mxPoint x="710" y="450" as="sourcePoint" />
            <mxPoint x="480" y="350" as="targetPoint" />
          </mxGeometry>
        </mxCell>
        <mxCell id="jvAspUG5LIDvkm1L4I2T-69" value="拥有使用权" style="text;html=1;strokeColor=none;fillColor=none;align=center;verticalAlign=middle;whiteSpace=wrap;rounded=0;rotation=20;" parent="1" vertex="1">
          <mxGeometry x="555" y="380" width="120" height="30" as="geometry" />
        </mxCell>
        <mxCell id="jvAspUG5LIDvkm1L4I2T-70" value="" style="endArrow=classic;html=1;rounded=0;entryX=0;entryY=0.25;entryDx=0;entryDy=0;exitX=1;exitY=0;exitDx=0;exitDy=0;" parent="1" source="jvAspUG5LIDvkm1L4I2T-33" target="jvAspUG5LIDvkm1L4I2T-1" edge="1">
          <mxGeometry width="50" height="50" relative="1" as="geometry">
            <mxPoint x="580" y="630" as="sourcePoint" />
            <mxPoint x="630" y="580" as="targetPoint" />
          </mxGeometry>
        </mxCell>
        <mxCell id="jvAspUG5LIDvkm1L4I2T-71" value="" style="endArrow=classic;html=1;rounded=0;entryX=1;entryY=0.5;entryDx=0;entryDy=0;exitX=0;exitY=0.75;exitDx=0;exitDy=0;" parent="1" source="jvAspUG5LIDvkm1L4I2T-1" target="jvAspUG5LIDvkm1L4I2T-33" edge="1">
          <mxGeometry width="50" height="50" relative="1" as="geometry">
            <mxPoint x="580" y="630" as="sourcePoint" />
            <mxPoint x="630" y="580" as="targetPoint" />
          </mxGeometry>
        </mxCell>
        <mxCell id="jvAspUG5LIDvkm1L4I2T-72" value="购买房子的所有权" style="text;html=1;strokeColor=none;fillColor=none;align=center;verticalAlign=middle;whiteSpace=wrap;rounded=0;" parent="1" vertex="1">
          <mxGeometry x="370" y="480" width="110" height="20" as="geometry" />
        </mxCell>
        <mxCell id="jvAspUG5LIDvkm1L4I2T-73" value="拥有房子的所有权" style="text;html=1;strokeColor=none;fillColor=none;align=center;verticalAlign=middle;whiteSpace=wrap;rounded=0;" parent="1" vertex="1">
          <mxGeometry x="375" y="440" width="100" height="30" as="geometry" />
        </mxCell>
        <mxCell id="jvAspUG5LIDvkm1L4I2T-74" value="" style="endArrow=classic;html=1;rounded=0;entryX=1;entryY=0.25;entryDx=0;entryDy=0;exitX=0.75;exitY=1;exitDx=0;exitDy=0;" parent="1" source="jvAspUG5LIDvkm1L4I2T-1" target="jvAspUG5LIDvkm1L4I2T-22" edge="1">
          <mxGeometry width="50" height="50" relative="1" as="geometry">
            <mxPoint x="580" y="710" as="sourcePoint" />
            <mxPoint x="630" y="660" as="targetPoint" />
          </mxGeometry>
        </mxCell>
        <mxCell id="jvAspUG5LIDvkm1L4I2T-75" value="" style="endArrow=classic;html=1;rounded=0;entryX=0.135;entryY=0.058;entryDx=0;entryDy=0;exitX=0.361;exitY=0.933;exitDx=0;exitDy=0;entryPerimeter=0;exitPerimeter=0;" parent="1" source="jvAspUG5LIDvkm1L4I2T-33" target="jvAspUG5LIDvkm1L4I2T-22" edge="1">
          <mxGeometry width="50" height="50" relative="1" as="geometry">
            <mxPoint x="90" y="480" as="sourcePoint" />
            <mxPoint x="630" y="660" as="targetPoint" />
          </mxGeometry>
        </mxCell>
        <mxCell id="jvAspUG5LIDvkm1L4I2T-77" value="拥有使用权" style="text;html=1;strokeColor=none;fillColor=none;align=center;verticalAlign=middle;whiteSpace=wrap;rounded=0;rotation=-50;" parent="1" vertex="1">
          <mxGeometry x="590" y="660" width="90" height="30" as="geometry" />
        </mxCell>
        <mxCell id="jvAspUG5LIDvkm1L4I2T-78" value="拥有使用权" style="text;html=1;strokeColor=none;fillColor=none;align=center;verticalAlign=middle;whiteSpace=wrap;rounded=0;rotation=50;" parent="1" vertex="1">
          <mxGeometry x="170" y="650" width="90" height="30" as="geometry" />
        </mxCell>
      </root>
    </mxGraphModel>
  </diagram>
</mxfile>
